<svg width="13" height="23" viewBox="0 0 13 23" fill="none" xmlns="http://www.w3.org/2000/svg">
<path d="M0.479547 16.4876C0.269885 15.8243 0.851464 15.2475 1.54718 15.2475C2.24289 15.2475 2.81009 15.8595 3.24417 16.4031C3.88392 17.2044 5.15547 17.7669 6.58599 17.7669C8.6393 17.7669 10.3651 16.608 10.3651 15.2475C10.3651 13.8619 9.055 13.358 6.28366 12.6903C3.61309 12.0227 0.287476 11.1913 0.287476 7.68932C0.287476 5.78506 1.60814 4.12338 3.55904 3.26572C4.20656 2.98106 4.69643 2.38135 4.69643 1.67402C4.69643 0.821891 5.38722 0.131104 6.23935 0.131104H6.93262C7.78475 0.131104 8.47554 0.821891 8.47554 1.67402C8.47554 2.38135 8.96542 2.98106 9.61293 3.26572C11.1256 3.93073 12.2594 5.07914 12.6924 6.44921C12.9021 7.11258 12.3205 7.68932 11.6248 7.68932C10.9291 7.68932 10.3619 7.07739 9.9278 6.53371C9.28805 5.73242 8.01651 5.16991 6.58599 5.16991C4.53267 5.16991 2.80688 6.32884 2.80688 7.68932C2.80688 9.07499 4.11697 9.57887 6.88832 10.2465C9.55888 10.9142 12.8845 11.7456 12.8845 15.2475C12.8845 17.1518 11.5638 18.8135 9.61294 19.6711C8.96542 19.9558 8.47554 20.5555 8.47554 21.2628C8.47554 22.115 7.78475 22.8057 6.93262 22.8057H6.23935C5.38722 22.8057 4.69643 22.115 4.69643 21.2628C4.69643 20.5555 4.20656 19.9558 3.55904 19.6711C2.04635 19.0061 0.912564 17.8577 0.479547 16.4876Z" fill="#55D562"/>
</svg>
