<svg width="23" height="24" viewBox="0 0 23 24" fill="none" xmlns="http://www.w3.org/2000/svg">
<path d="M1.28388 3.30747C0.839129 2.86272 0.840543 2.1412 1.28703 1.6982V1.6982C1.73105 1.25765 2.44771 1.25906 2.89 1.70135L22.3524 21.1637C22.7947 21.606 22.7961 22.3227 22.3555 22.7667V22.7667C21.9125 23.2132 21.191 23.2146 20.7463 22.7699L18.4622 20.4858C17.6254 19.649 16.2556 19.7037 15.2068 20.2518C15.0851 20.3154 14.9605 20.3759 14.8332 20.4331C14.1899 20.7222 13.7045 21.3224 13.7045 22.0277V22.0277C13.7045 22.8828 13.0113 23.5761 12.1561 23.5761H11.4683C10.6162 23.5761 9.92543 22.8853 9.92543 22.0332V22.0332C9.92543 21.3258 9.43555 20.7261 8.78803 20.4414C7.27534 19.7764 6.14156 18.628 5.70854 17.258C5.49888 16.5946 6.08046 16.0179 6.77617 16.0179V16.0179C7.47189 16.0179 8.03909 16.6298 8.47317 17.1735C9.11292 17.9747 10.3845 18.5373 11.815 18.5373V18.5373C13.9335 18.5373 14.0212 16.0448 12.5232 14.5468L12.2944 14.318C11.7168 13.7404 10.991 13.3401 10.205 13.1181C7.87223 12.4591 5.51647 11.409 5.51647 8.45964V8.45964C5.51647 7.94486 5.37472 7.39831 5.01071 7.0343L1.28388 3.30747ZM9.49798 3.80301C9.7546 3.7097 9.92543 3.46581 9.92543 3.19275V2.51641C9.92543 1.62448 10.6485 0.901428 11.5404 0.901428H12.1616C13.0137 0.901428 13.7045 1.59222 13.7045 2.44434V2.44434C13.7045 3.15167 14.1944 3.75138 14.8419 4.03604C16.3546 4.70106 17.4884 5.84947 17.9214 7.21953C18.1311 7.8829 17.5495 8.45964 16.8538 8.45964V8.45964C16.1581 8.45964 15.5909 7.84772 15.1568 7.30403C14.517 6.50275 13.2455 5.94024 11.815 5.94024C11.6076 5.94024 11.4051 5.95271 11.2077 5.97544C10.7589 6.02709 10.2974 5.90911 9.978 5.5897L9.26073 4.87244C8.9248 4.5365 9.05151 3.96537 9.49798 3.80301V3.80301Z" fill="#FD3E3E"/>
</svg>
