<svg width="29" height="29" viewBox="0 0 29 29" fill="none" xmlns="http://www.w3.org/2000/svg">
<path d="M17.4444 5.1678V8.71481C17.4444 9.19652 17.0539 9.58703 16.5722 9.58703C16.0905 9.58703 15.7 9.19652 15.7 8.71481V5.1678C15.7 4.85381 15.4208 4.70262 15.2348 4.70262C15.1766 4.70262 15.1185 4.71425 15.0603 4.73751L5.83811 8.21474C5.22174 8.44733 4.82634 9.02881 4.82634 9.69169C4.82634 10.1821 4.58142 10.6318 4.24726 10.9907C3.5246 11.7668 3.08191 12.8108 3.08191 13.9597V9.69169C3.08191 8.30778 3.93087 7.07505 5.22174 6.58661L14.4556 3.09775C14.7114 3.00471 14.9789 2.95819 15.2348 2.95819C16.3977 2.95819 17.4444 3.90018 17.4444 5.1678Z" fill="#A8A8A8"/>
<path d="M25.178 17.4369V18.5999C25.178 18.9139 24.9338 19.1697 24.6082 19.1814H22.9103C22.2939 19.1814 21.7357 18.7278 21.6892 18.1231C21.6543 17.7626 21.7938 17.4253 22.0264 17.1927C22.2357 16.9718 22.5265 16.8555 22.8405 16.8555H24.5965C24.9338 16.8671 25.178 17.1229 25.178 17.4369Z" fill="#A8A8A8"/>
<path d="M22.8289 15.6343H24.0151C24.6547 15.6343 25.178 15.111 25.178 14.4714V13.9597C25.178 11.5524 23.2126 9.58698 20.8053 9.58698H7.45462C6.46611 9.58698 5.559 9.9126 4.82634 10.4708C3.76805 11.2616 3.08191 12.5292 3.08191 13.9597V21.7864C3.08191 24.1937 5.0473 26.1591 7.45462 26.1591H20.8053C23.2126 26.1591 25.178 24.1937 25.178 21.7864V21.5654C25.178 20.9258 24.6547 20.4024 24.0151 20.4024H23.0033C21.8869 20.4024 20.817 19.7163 20.5262 18.6348C20.282 17.7509 20.5727 16.902 21.1542 16.3321C21.5845 15.8902 22.1776 15.6343 22.8289 15.6343ZM16.4559 15.4017H8.3152C7.83839 15.4017 7.44299 15.0063 7.44299 14.5295C7.44299 14.0527 7.83839 13.6573 8.3152 13.6573H16.4559C16.9327 13.6573 17.3281 14.0527 17.3281 14.5295C17.3281 15.0063 16.9327 15.4017 16.4559 15.4017Z" fill="#A8A8A8"/>
</svg>
