<svg width="30" height="21" viewBox="0 0 30 21" fill="none" xmlns="http://www.w3.org/2000/svg">
<path d="M7.3333 19.9722C5.21478 19.4222 3.46293 18.2814 2.07775 16.5499C0.692562 14.8185 -3.05176e-05 12.8018 -3.05176e-05 10.4999C-3.05176e-05 8.19809 0.692562 6.18143 2.07775 4.44995C3.46293 2.71847 5.21478 1.57772 7.3333 1.02772V3.59439C5.88701 4.08328 4.71041 4.95921 3.80352 6.22217C2.89664 7.48513 2.4436 8.91106 2.44441 10.4999C2.44441 12.0888 2.89786 13.5148 3.80475 14.7777C4.71164 16.0407 5.88782 16.9166 7.3333 17.4055V19.9722ZM17.1111 20.2777C14.4018 20.2777 12.0947 19.3256 10.1896 17.4214C8.2846 15.5172 7.33249 13.21 7.3333 10.4999C7.3333 7.79069 8.28541 5.48354 10.1896 3.5785C12.0939 1.67346 14.401 0.721354 17.1111 0.722168C18.4555 0.722168 19.7185 0.976798 20.9 1.48606C22.0815 1.99532 23.1203 2.69809 24.0166 3.59439L22.3055 5.3055C21.6333 4.63328 20.8543 4.10854 19.9686 3.73128C19.0829 3.35402 18.1304 3.1658 17.1111 3.16661C15.074 3.16661 13.3426 3.87958 11.9166 5.3055C10.4907 6.73143 9.77775 8.46291 9.77775 10.4999C9.77775 12.537 10.4907 14.2685 11.9166 15.6944C13.3426 17.1203 15.074 17.8333 17.1111 17.8333C18.1296 17.8333 19.0817 17.6446 19.9674 17.2674C20.8531 16.8901 21.6325 16.3658 22.3055 15.6944L24.0166 17.4055C23.1203 18.3018 22.0815 19.0046 20.9 19.5138C19.7185 20.0231 18.4555 20.2777 17.1111 20.2777ZM24.4444 15.3888L22.7333 13.6777L24.6889 11.7222H15.8889V9.27772H24.6889L22.7333 7.32217L24.4444 5.61106L29.3333 10.4999L24.4444 15.3888Z" fill="#55D562"/>
</svg>
