<svg width="27" height="24" viewBox="0 0 27 24" fill="none" xmlns="http://www.w3.org/2000/svg">
<path fill-rule="evenodd" clip-rule="evenodd" d="M12.8417 0.445923C14.08 0.446018 15.2843 0.851429 16.2706 1.60024C17.2568 2.34905 17.9709 3.4001 18.3038 4.59286C18.34 4.73564 18.4848 4.82224 18.6277 4.78655L20.7249 4.26282C20.8971 4.21996 21.0764 4.21396 21.251 4.24521C21.4257 4.27646 21.5918 4.34426 21.7384 4.44416C21.885 4.54406 22.0089 4.6738 22.1019 4.82491C22.1949 4.97601 22.255 5.14505 22.2781 5.32097L22.2895 5.48473C22.2895 6.94128 22.9618 8.29198 23.6965 9.54965C23.8079 9.74041 23.9117 9.93586 24.0077 10.1356C24.1135 10.3716 24.348 10.5235 24.6067 10.5235H24.8089C25.1174 10.5236 25.4152 10.6369 25.6458 10.8419C25.8763 11.0469 26.0236 11.3294 26.0597 11.6359L26.0686 11.7832V15.5623C26.0686 15.7697 26.0174 15.9738 25.9197 16.1567C25.8219 16.3395 25.6805 16.4953 25.508 16.6104L25.3719 16.6885C24.4157 17.1674 23.6744 17.9688 23.0042 18.8022C22.5307 19.3911 21.9765 19.9139 21.356 20.3543C21.1521 20.4913 21.0297 20.7208 21.0297 20.9665V21.8609C21.0297 22.1694 20.9164 22.4672 20.7114 22.6978C20.5064 22.9283 20.2239 23.0756 19.9174 23.1117L19.77 23.1206H15.9909C15.6824 23.1205 15.3846 23.0072 15.154 22.8022C14.9235 22.5972 14.7762 22.3147 14.7401 22.0082C14.7351 21.9255 14.6665 21.8609 14.5836 21.8609H14.1202C13.7619 21.8609 13.4846 22.1694 13.3081 22.4812C13.2646 22.5581 13.2127 22.6308 13.1532 22.6978C12.9482 22.9283 12.6656 23.0756 12.3592 23.1117L12.2118 23.1206H8.43273C8.12418 23.1205 7.82638 23.0072 7.59581 22.8022C7.36524 22.5972 7.21794 22.3147 7.18184 22.0082L7.17302 21.8609C7.17302 21.0588 6.74702 20.3302 6.14712 19.7978C5.66341 19.3685 5.23107 18.8825 4.85992 18.3492C4.6838 18.0961 4.52244 17.8338 4.37645 17.5636C3.69996 16.3117 2.58121 15.2497 1.6959 14.1356C1.21374 13.5288 0.929642 12.7886 0.88207 12.015L0.874512 11.7832V11.1534C0.874868 10.8323 0.99781 10.5235 1.21822 10.29C1.43863 10.0566 1.73987 9.91607 2.06039 9.89725C2.38091 9.87844 2.69652 9.98272 2.94273 10.1888C3.18894 10.3949 3.34718 10.6872 3.3851 11.006L3.39392 11.1534V11.7832C3.39392 11.9471 3.57687 11.9372 3.61482 11.7778C3.8389 10.8367 4.22826 9.94123 4.76615 9.13367C4.96124 8.84077 5.17453 8.56144 5.40447 8.2972C6.36209 7.19673 6.99733 5.7831 7.44031 4.39319C7.68265 3.63285 8.08279 2.93225 8.61456 2.33722C9.14633 1.74219 9.79774 1.26614 10.5262 0.940225C11.2546 0.614308 12.0437 0.445867 12.8417 0.445923ZM18.5103 10.5235C18.1763 10.5235 17.8558 10.6563 17.6196 10.8925C17.3834 11.1287 17.2506 11.4491 17.2506 11.7832C17.2506 12.1173 17.3834 12.4377 17.6196 12.674C17.8558 12.9102 18.1763 13.0429 18.5103 13.0429C18.8444 13.0429 19.1648 12.9102 19.4011 12.674C19.6373 12.4377 19.77 12.1173 19.77 11.7832C19.77 11.4491 19.6373 11.1287 19.4011 10.8925C19.1648 10.6563 18.8444 10.5235 18.5103 10.5235ZM12.8417 2.96533C12.0787 2.96532 11.3416 3.24234 10.7675 3.74488C10.6701 3.83011 10.5785 3.92083 10.4931 4.01644C9.88832 4.69341 10.6742 5.48429 11.582 5.48473H15.826C15.8327 5.48473 15.8392 5.48394 15.8457 5.48238C15.8894 5.47176 15.9169 5.42827 15.9065 5.3845C15.7456 4.7095 15.366 4.10569 14.8258 3.66786C14.2646 3.21307 13.564 2.96503 12.8417 2.96533Z" fill="#589BFF"/>
</svg>
